<?xml version="1.0" encoding="utf-8"?>
<svg viewBox="0 0 54.97 31.2" style="shape-rendering:geometricPrecision; text-rendering:geometricPrecision; image-rendering:optimizeQuality; fill-rule:evenodd; clip-rule:evenodd" xmlns="http://www.w3.org/2000/svg" xmlns:bx="https://boxy-svg.com">
  <defs>
    <style bx:fonts="Bebas">@font-face { font-family: Bebas; font-variant: normal; font-style: normal; font-weight: normal; }</style>
    <style type="text/css">.fil4 { fill: rgb(254, 254, 254); }.fil9 { fill: rgb(189, 191, 193); }.fil7 { fill: rgb(169, 171, 174); }.fil0 { fill: rgb(55, 52, 53); }.fil2 { fill: rgb(237, 50, 55); }.fil3 { fill: rgb(62, 64, 149); }.fil6 { fill: rgb(1, 1, 1); }.fil8 { fill: rgb(82, 14, 15); }.fil5 { fill: rgb(181, 17, 17); }.fil1 { fill: rgb(62, 64, 149); fill-rule: nonzero; }.fnt0 { font-weight: normal; font-size: 24.12px; font-family: Bebas; }.fnt1 { font-weight: normal; font-size: 44.58px; font-family: Bebas; }</style>
  </defs>
  <g id="Layer_x0020_1">
    <polygon class="fil0" points="23.43,19.76 23.43,31.2 17.96,31.2 16.06,19.76 "/>
    <path class="fil1" d="M10.83 24.29l-5.08 0 -1.02 6.91 -4.73 0 5.17 -31.2 6.33 0 5.17 31.2 -4.81 0 -1.03 -6.91zm-0.62 -4.54l-1.92 -13.06 -1.92 13.06 3.84 0z"/>
    <g id="_1613227742848">
      <path class="fil4" d="M44.52 5.75c-0.34,-0.13 -0.89,0.5 -1.26,0.89 -1.4,1.45 -1.58,3.39 -1.18,5.43 0.45,2.46 1.98,3.98 3.64,4.99l0.01 3.44c0.42,0.25 0.72,1.11 1.04,1.51 0.45,0.88 1.18,1.74 1.59,2.55 0.41,-0.29 0.57,-0.72 0.93,-1.23 0.3,-0.42 0.59,-0.97 0.88,-1.29 0.14,-0.36 0.65,-1.22 0.93,-1.38l0.02 -3.64c1.58,-0.63 3.34,-2.9 3.67,-5.07 0.17,-1.48 0.41,-2.61 -0.29,-3.96 -0.59,-1.11 -1.34,-1.88 -2.15,-2.41l0.01 -2.67 -0.64 0 -0.91 0.46 -0.64 0.07c-0.9,-0.27 -0.56,-0.64 -1.81,-0.51 -1.28,0.26 -2.03,1.32 -2.05,2.79l5.98 0.01c-0.04,0.27 -2.4,4.28 -2.88,5.12 -0.16,0.27 -0.31,0.52 -0.49,0.84l-0.39 0.63c-0.1,0.13 -0.06,0.08 -0.15,0.17l-3.86 -6.74z"/>
      <path class="fil5" d="M44.52 5.75l3.86 6.74c0.09,-0.09 0.05,-0.04 0.15,-0.17l0.39 -0.63c0.18,-0.32 0.33,-0.57 0.49,-0.84 0.48,-0.84 2.84,-4.85 2.88,-5.12l-5.98 -0.01c0.02,-1.47 0.77,-2.53 2.05,-2.79 0.39,-0.2 0.62,-0.06 0.99,-0.26 0.26,-0.14 0.46,-0.35 0.75,-0.45 0.59,-0.2 1.18,0.34 1.56,0.64l0.8 0c0.23,-0.16 0.31,-0.14 0.58,-0.24 0.26,-0.1 0.34,-0.18 0.56,-0.28 0.57,-0.68 1.04,-1.01 1.09,-2.26 -1.85,-0.06 -6.13,-0.28 -7.51,0.43 -1.31,0.67 -2.97,2.94 -2.66,5.24z"/>
      <path class="fil6" d="M50.17 22.04c-0.29,0.32 -0.58,0.87 -0.88,1.29 -0.36,0.51 -0.52,0.94 -0.93,1.23 -0.41,-0.81 -1.14,-1.67 -1.59,-2.55 -0.06,0.1 -0.04,0.04 -0.08,0.23l-0.02 7.91c0.03,1.12 0.68,1.05 1.72,1.05 2.15,0 1.77,-0.12 1.77,-3.69 0,-1.8 -0.06,-3.69 0.01,-5.47z"/>
      <path class="fil6" d="M51.1 20.66l0.03 2.16c0.7,-1.13 2.14,-4.54 2.5,-5.89l0.37 -0.88c0.06,-0.96 1.13,-3.29 0.79,-4.1 -0.33,2.17 -2.09,4.44 -3.67,5.07l-0.02 3.64z"/>
      <path class="fil6" d="M42.89 15.95c0.21,0.26 0.32,0.78 0.39,1.1 0.28,0.42 0.88,2.22 1.15,2.84 0.25,0.61 0.97,2.41 1.28,2.75l0.02 -2.14 -0.01 -3.44c-1.66,-1.01 -3.19,-2.53 -3.64,-4.99 -0.33,0.72 0.68,3.03 0.81,3.88z"/>
      <path class="fil3" d="M35.39 16.15l0 0.78c1.24,0 7.21,-0.2 7.89,0.12 -0.07,-0.32 -0.18,-0.84 -0.39,-1.1 -0.04,0.2 -0.01,0.12 -0.08,0.2l-7.42 0z"/>
      <path class="fil7" d="M48.36 2.93c1.25,-0.13 0.91,0.24 1.81,0.51 -0.02,-0.02 -0.05,-0.05 -0.06,-0.06l-0.11 -0.13c-0.3,-0.4 -0.17,-0.53 0.08,-0.93 1.04,-0.08 0.93,0.36 0.73,1.05l0.91 -0.46 -0.06 -0.05c-0.38,-0.3 -0.97,-0.84 -1.56,-0.64 -0.29,0.1 -0.49,0.31 -0.75,0.45 -0.37,0.2 -0.6,0.06 -0.99,0.26z"/>
      <path class="fil8" d="M50.61 2.41c-0.33,-0.13 -0.6,0.03 -0.68,0.26 -0.08,0.23 0.06,0.41 0.14,0.59 1.25,0.21 0.77,-0.76 0.54,-0.85z"/>
      <path class="fil6" d="M52.46 2.86l1.53 0c-0.14,-0.39 -0.14,-0.32 -0.39,-0.52 -0.22,0.1 -0.3,0.18 -0.56,0.28 -0.27,0.1 -0.35,0.08 -0.58,0.24z"/>
      <path class="fil9" d="M50.07 3.26c-0.08,-0.18 -0.22,-0.36 -0.14,-0.59 0.08,-0.23 0.35,-0.39 0.68,-0.26 0.23,0.09 0.71,1.06 -0.54,0.85zm0.1 0.18l0.64 -0.07c0.2,-0.69 0.31,-1.13 -0.73,-1.05 -0.25,0.4 -0.38,0.53 -0.08,0.93l0.11 0.13c0.01,0.01 0.04,0.04 0.06,0.06z"/>
    </g>
    <g id="svgGroup" stroke-linecap="round" fill-rule="evenodd" font-size="9pt" stroke="#ffffff" stroke-width="0" fill="#3e4095" style="stroke: rgb(255, 255, 255); stroke-width: 0; fill: rgb(62, 64, 149);" transform="matrix(0.450541, 0, 0, 0.445296, 24.065434, -0.003811)">
      <path d="M 0 70.001 L 0 0.001 L 16.8 0.001 Q 22.53 0.001 26.258 2.149 A 12.152 12.152 0 0 1 29.1 4.401 A 14.033 14.033 0 0 1 32.143 9.725 Q 32.837 11.864 33.075 14.458 A 31.07 31.07 0 0 1 33.2 17.301 L 33.2 52.701 A 28.154 28.154 0 0 1 32.8 57.613 Q 32.325 60.288 31.287 62.4 A 13.197 13.197 0 0 1 29.1 65.601 A 12.931 12.931 0 0 1 23.389 69.097 Q 21.324 69.747 18.823 69.929 A 27.789 27.789 0 0 1 16.8 70.001 L 0 70.001 Z M 11 60.001 L 16.6 60.001 Q 19.044 60.001 20.464 58.689 A 4.571 4.571 0 0 0 20.75 58.401 A 4.717 4.717 0 0 0 21.648 56.883 Q 22.165 55.515 22.198 53.48 A 17.299 17.299 0 0 0 22.2 53.201 L 22.2 16.801 Q 22.2 13.201 20.75 11.601 A 4.697 4.697 0 0 0 18.309 10.19 Q 17.54 10.004 16.629 10.001 A 9.11 9.11 0 0 0 16.6 10.001 L 11 10.001 L 11 60.001 Z" vector-effect="non-scaling-stroke"/>
    </g>
    <g id="g-1" stroke-linecap="round" fill-rule="evenodd" font-size="9pt" stroke="#ffffff" stroke-width="0" fill="#ed3237" style="stroke: rgb(255, 255, 255); stroke-width: 0; fill: rgb(237, 50, 55);" transform="matrix(0.239858, 0, 0, 0.242089, 15.630213, 0.983062)">
      <path d="M 0.001 71.001 L 0.001 63.401 A 39.2 39.2 0 0 1 0.428 57.455 Q 0.922 54.239 1.987 51.535 A 22.933 22.933 0 0 1 2.401 50.551 A 29.359 29.359 0 0 1 4.675 46.467 Q 5.989 44.469 7.757 42.334 A 69.674 69.674 0 0 1 11.001 38.701 Q 17.101 32.201 19.451 27.601 Q 21.801 23.001 21.801 18.001 Q 21.801 14.435 20.89 12.596 A 4.327 4.327 0 0 0 20.351 11.751 A 4.668 4.668 0 0 0 17.719 10.172 A 7.217 7.217 0 0 0 16.101 10.001 A 6.668 6.668 0 0 0 13.64 10.419 Q 10.737 11.566 10.435 15.863 A 14.845 14.845 0 0 0 10.401 16.901 L 10.401 24.401 L 0.001 24.401 L 0.001 17.601 A 27.602 27.602 0 0 1 0.431 12.561 Q 0.96 9.718 2.137 7.485 A 13.766 13.766 0 0 1 4.201 4.551 A 13.5 13.5 0 0 1 10.73 0.695 Q 12.918 0.098 15.533 0.014 A 27.056 27.056 0 0 1 16.401 0.001 A 22.43 22.43 0 0 1 21.241 0.491 Q 24.356 1.179 26.663 2.836 A 12.768 12.768 0 0 1 28.601 4.551 Q 32.165 8.412 32.704 15.118 A 30.974 30.974 0 0 1 32.801 17.601 A 27.448 27.448 0 0 1 30.12 29.337 A 32.024 32.024 0 0 1 29.751 30.101 Q 27.701 34.199 23.643 39.11 A 97.39 97.39 0 0 1 19.201 44.101 A 82.465 82.465 0 0 0 16.697 46.871 Q 13.822 50.215 12.601 52.551 Q 10.901 55.801 10.901 59.501 L 10.901 61.001 L 31.801 61.001 L 31.801 71.001 L 0.001 71.001 Z" vector-effect="non-scaling-stroke"/>
    </g>
  </g>
</svg>